<svg version="1.1" id="Layer_1" xmlns="http://www.w3.org/2000/svg" xmlns:xlink="http://www.w3.org/1999/xlink" x="0px" y="0px"
	 width="100%" viewBox="0 0 1364 591" enable-background="new 0 0 1364 591" xml:space="preserve">
<path fill="#000000" opacity="1.000000" stroke="none" 
	d="
M864.000000,592.000000 
	C576.036743,592.000000 288.573486,592.000000 1.055110,592.000000 
	C1.055110,395.061920 1.055110,198.123840 1.055110,1.092873 
	C455.546600,1.092873 910.093262,1.092873 1364.819946,1.092873 
	C1364.819946,197.999863 1364.819946,394.999908 1364.819946,592.000000 
	C1198.123779,592.000000 1031.311890,592.000000 864.000000,592.000000 
M207.329330,68.914207 
	C203.065018,71.269760 198.516693,73.231590 194.594162,76.060989 
	C185.824554,82.386696 177.313080,89.076096 168.794830,95.743027 
	C156.447113,105.407127 146.830795,117.601006 138.215561,130.482330 
	C129.523254,143.478928 122.027069,157.289856 118.015862,172.518295 
	C114.793480,184.751999 111.873154,197.162643 110.218132,209.679779 
	C108.984138,219.012619 109.862228,228.643997 110.094208,238.135223 
	C110.140923,240.046585 111.025429,242.405914 112.347305,243.746658 
	C129.474319,261.117950 146.684143,278.409088 164.002472,295.589996 
	C200.464355,331.762512 237.091141,367.769196 273.466400,404.028381 
	C287.989410,418.505066 310.169891,418.000671 324.725800,404.749939 
	C339.066864,391.694824 340.205139,368.323364 326.485504,353.047699 
	C317.228302,342.740601 307.604797,332.759705 298.053558,322.720032 
	C283.293213,307.204865 268.464935,291.754242 253.646454,276.294495 
	C235.699844,257.571228 217.707001,238.892075 199.842972,220.090454 
	C198.798492,218.991150 198.009979,216.815887 198.311310,215.398331 
	C201.661850,199.636337 208.748978,185.542633 219.225525,173.439835 
	C236.036682,154.019119 256.997345,141.378281 282.283813,135.664230 
	C299.005981,131.885452 315.602570,131.697388 332.206451,135.099960 
	C350.101318,138.767090 365.904449,146.810074 379.137421,159.628311 
	C391.116333,171.231766 398.132111,185.652451 402.931671,201.320175 
	C403.716156,203.880966 404.449371,206.679245 404.232330,209.286682 
	C403.284058,220.677994 404.875488,231.408691 410.799622,241.397751 
	C419.467255,256.012787 436.800995,263.326141 453.379333,258.025085 
	C474.502777,251.270737 487.767761,231.140411 487.746918,209.288101 
	C487.737701,199.601379 485.442780,189.830673 483.450287,180.250992 
	C479.910034,163.229858 473.004120,147.436981 464.011139,132.625809 
	C452.290802,113.322723 437.367279,96.954132 419.100159,83.483452 
	C401.609985,70.585709 382.799011,60.350368 361.898804,54.632240 
	C348.117615,50.861824 333.954315,48.148052 319.789886,46.238720 
	C310.436432,44.977898 300.741150,45.460205 291.264679,46.114368 
	C280.511414,46.856670 269.739685,48.162956 259.140259,50.115784 
	C241.131882,53.433643 224.117996,59.844337 207.329330,68.914207 
M347.960175,335.529358 
	C350.102386,337.333679 352.325134,339.051361 354.373993,340.956116 
	C369.960449,355.446411 385.356873,370.147308 401.199493,384.350952 
	C404.620789,387.418243 404.857666,390.177826 403.696075,393.749268 
	C396.252563,416.635132 384.366028,436.548492 365.592865,452.148621 
	C349.663605,465.385529 331.492676,473.999146 311.399658,477.750702 
	C296.327515,480.564819 280.914978,479.913666 265.952545,475.568573 
	C244.510330,469.341736 226.435104,457.966187 212.712021,440.154907 
	C202.127182,426.416626 195.643723,411.354736 195.785568,393.463440 
	C195.868210,383.039673 191.046387,374.081207 182.945847,366.975586 
	C173.213943,358.438965 153.580261,359.473145 143.673859,365.821045 
	C122.736961,379.237183 115.924568,399.657684 117.587418,422.739014 
	C118.445496,434.649689 122.890755,446.570831 127.226341,457.909424 
	C138.315811,486.911285 157.569794,509.711182 182.461746,528.113098 
	C211.122711,549.301331 243.827408,559.586487 278.646423,562.682617 
	C302.571594,564.809937 326.424988,562.051575 349.817688,555.277466 
	C366.328308,550.496216 382.142487,544.519775 397.037659,536.010681 
	C428.767395,517.884705 454.055511,493.516113 471.556366,461.087799 
	C484.413452,437.264313 491.164459,412.119995 490.950409,385.106049 
	C490.899414,378.669495 489.910645,372.221649 490.143707,365.807709 
	C490.319458,360.971405 488.639954,357.517181 485.167023,354.590546 
	C483.278961,352.999512 481.275024,351.538727 479.455780,349.874420 
	C467.039734,338.515869 454.631439,327.148529 442.273041,315.727356 
	C423.920776,298.766907 405.637360,281.731903 387.276978,264.780304 
	C370.171173,248.987000 352.548157,233.721603 335.997742,217.368683 
	C321.171509,202.719360 304.291718,196.113464 283.782013,200.057419 
	C267.558685,203.177094 257.981720,214.829803 257.122650,230.249756 
	C256.223907,246.381195 264.190063,258.721893 275.766174,269.104126 
	C281.668274,274.397522 287.639893,279.614990 293.477112,284.978851 
	C311.552612,301.588409 329.578705,318.251740 347.960175,335.529358 
M671.117798,227.361389 
	C668.517212,229.451309 665.916565,231.541229 663.148926,233.765396 
	C663.009521,231.008011 662.888184,228.607086 662.773682,226.342010 
	C656.593262,226.342010 650.862610,226.342010 645.339844,226.342010 
	C645.339844,252.407730 645.339844,278.131195 645.339844,303.649811 
	C651.752991,303.649811 657.823547,303.649811 663.999756,303.649811 
	C663.999756,288.150299 663.795044,272.997711 664.058594,257.853302 
	C664.310852,243.356491 677.600952,236.973862 688.627563,242.991898 
	C694.188171,246.026688 694.850159,251.837830 694.925842,257.339294 
	C695.138000,272.772797 694.999756,288.211121 694.999756,303.755829 
	C701.535156,303.755829 707.600708,303.755829 714.000000,303.755829 
	C714.000000,301.884918 714.000000,300.254486 714.000000,298.624084 
	C713.999939,284.467072 713.939514,270.309692 714.026672,256.153198 
	C714.067139,249.578873 718.330627,243.924072 724.428162,241.884232 
	C731.592590,239.487488 738.051453,240.438126 741.098022,245.906158 
	C743.438477,250.106949 744.672302,255.395889 744.830994,260.252106 
	C745.302551,274.682007 745.000000,289.137207 745.000000,303.786865 
	C751.137146,303.786865 756.869263,303.786865 763.000183,303.786865 
	C763.000183,287.298126 763.053772,271.019562 762.954895,254.741943 
	C762.935181,251.493958 762.605896,248.193390 761.951599,245.013321 
	C759.416382,232.692230 745.690674,222.524750 733.863647,224.071838 
	C724.161316,225.341003 715.097412,228.030609 708.562622,236.045685 
	C699.175659,223.293213 684.459167,222.338593 671.117798,227.361389 
M550.519043,240.999863 
	C546.615173,239.983154 542.630371,239.202759 538.824951,237.898712 
	C531.723389,235.465103 528.518677,230.516495 530.119446,223.558838 
	C531.450317,217.774399 535.929504,215.030304 541.650635,213.723373 
	C554.666382,210.750015 568.054382,215.524353 569.376038,230.815781 
	C575.472656,230.815781 581.582031,230.815781 588.040405,230.815781 
	C587.671692,228.220947 587.469604,225.827896 586.976440,223.496384 
	C584.854919,213.466003 579.795959,205.391632 570.556885,200.542862 
	C559.794067,194.894455 548.175659,194.440887 536.705261,197.119980 
	C513.014771,202.653320 505.118378,224.284439 514.523987,242.863892 
	C518.977173,251.660492 528.056213,254.459778 536.885559,256.985962 
	C545.221130,259.370880 553.618469,261.544495 561.926208,264.020477 
	C567.380005,265.645905 569.680237,270.306091 569.787415,275.274536 
	C569.894409,280.235718 566.992065,284.743103 562.090515,286.214264 
	C556.741272,287.819824 551.029846,288.461761 545.426880,288.919830 
	C537.417542,289.574554 527.122864,284.119202 525.891541,273.530548 
	C525.746216,272.280243 524.270813,270.242126 523.314636,270.184540 
	C517.916321,269.859344 512.488281,270.027466 506.796387,270.027466 
	C507.128693,285.185455 512.983826,296.578918 526.335388,302.471863 
	C540.227295,308.603241 554.834167,307.797302 568.859497,302.488068 
	C580.281555,298.164276 587.932678,289.880798 588.904968,277.207458 
	C590.005371,262.863281 584.639832,252.557281 571.229858,247.129013 
	C564.832764,244.539505 558.004333,243.015381 550.519043,240.999863 
M858.918091,245.851883 
	C850.546326,224.631638 819.999756,215.978058 800.984253,234.935806 
	C800.984253,231.811111 800.984253,229.109009 800.984253,226.242004 
	C794.810242,226.242004 789.077393,226.242004 783.220215,226.242004 
	C783.220215,262.527039 783.220215,298.570160 783.220215,334.771851 
	C789.504700,334.771851 795.568665,334.771851 802.063477,334.771851 
	C802.063477,321.859436 802.063477,309.168488 802.063477,295.394501 
	C809.905396,304.846527 819.573669,306.948669 830.083557,305.932709 
	C839.825012,304.991058 848.193481,301.148712 854.033875,292.807159 
	C864.180237,278.315369 864.341003,262.786682 858.918091,245.851883 
M1190.000000,301.548065 
	C1190.520752,302.359985 1191.016968,303.857452 1191.565918,303.876984 
	C1196.647095,304.057861 1201.737427,303.983826 1206.706421,303.983826 
	C1206.706421,266.320251 1206.706421,229.277374 1206.706421,192.303436 
	C1200.674927,192.303436 1194.943848,192.303436 1188.766724,192.303436 
	C1188.766724,206.605240 1188.766724,220.607986 1188.766724,235.305008 
	C1180.558228,226.109344 1170.940430,223.713028 1159.708984,224.871994 
	C1150.094604,225.864075 1142.529541,230.098038 1137.020996,237.574661 
	C1127.143555,250.981110 1126.007812,265.890625 1130.926025,281.485016 
	C1137.334473,301.804596 1155.857544,309.808075 1174.752319,304.767883 
	C1180.285156,303.291962 1185.136963,299.262634 1189.999390,296.570557 
	C1189.999390,297.320465 1189.999390,298.984253 1190.000000,301.548065 
M1067.417603,286.186768 
	C1061.881592,282.754364 1059.643188,277.559814 1058.927368,271.000763 
	C1075.259521,271.000763 1091.072510,271.049072 1106.884644,270.961914 
	C1110.234741,270.943481 1114.501465,271.539398 1116.626831,269.778076 
	C1118.197632,268.476196 1116.977173,263.806213 1117.000000,260.636780 
	C1117.001221,260.470154 1117.009399,260.302948 1116.998657,260.136993 
	C1116.210938,247.872177 1110.951416,238.142746 1100.865967,230.953247 
	C1091.815186,224.501343 1081.553589,223.155716 1071.268433,225.307236 
	C1065.197144,226.577271 1058.812378,229.641876 1054.143066,233.707642 
	C1039.792969,246.202713 1037.390991,262.577179 1042.624634,280.003296 
	C1049.022949,301.307678 1070.152954,310.361298 1091.158569,304.380280 
	C1104.103516,300.694366 1112.191040,292.243164 1116.096069,279.001099 
	C1110.148804,279.001099 1104.819092,278.882965 1099.502441,279.092621 
	C1098.322510,279.139160 1096.638916,280.056335 1096.118286,281.057007 
	C1091.239990,290.433960 1076.240479,292.720551 1067.417603,286.186768 
M562.000305,378.500000 
	C562.000305,369.478821 562.000305,360.457611 562.000305,350.422089 
	C563.184692,351.797119 563.636902,352.228943 563.980530,352.734589 
	C575.943665,370.335907 587.879150,387.956146 599.894714,405.521545 
	C600.610474,406.567871 601.920349,407.822815 603.017090,407.886261 
	C607.596252,408.151276 612.199524,407.997925 616.703125,407.997925 
	C616.703125,380.004852 616.703125,352.616852 616.703125,325.308411 
	C611.668640,325.308411 606.935425,325.308411 601.763062,325.308411 
	C601.763062,344.262512 601.763062,362.910675 601.763062,382.515930 
	C589.113342,363.794403 577.079651,345.925629 564.935974,328.131927 
	C564.035889,326.812958 562.410095,325.260223 561.011597,325.144348 
	C556.443787,324.765839 551.825012,325.002380 547.282959,325.002380 
	C547.282959,352.969299 547.282959,380.357300 547.282959,407.705688 
	C552.306335,407.705688 557.039734,407.705688 562.000305,407.705688 
	C562.000305,398.108459 562.000305,388.804230 562.000305,378.500000 
M1155.850586,347.331390 
	C1147.388306,344.903503 1139.034790,344.652802 1131.213379,349.315491 
	C1115.503052,358.681183 1112.369751,381.540375 1123.241333,396.605408 
	C1129.259644,404.945160 1137.633301,408.350037 1148.203613,407.196442 
	C1154.308594,406.530121 1159.247437,404.270721 1164.000000,399.895752 
	C1164.000000,402.249420 1164.000122,403.894165 1163.999878,405.538910 
	C1163.998535,414.304779 1161.494507,418.124969 1154.259399,420.398651 
	C1147.281250,422.591583 1141.412354,420.358643 1136.924561,413.997894 
	C1136.284180,413.090088 1134.999512,412.142456 1133.968872,412.090668 
	C1129.715942,411.876923 1125.446167,412.001129 1121.001099,412.001129 
	C1122.414551,418.718567 1124.832397,424.090668 1130.160400,428.050568 
	C1137.596558,433.577576 1146.138550,435.229156 1154.739258,433.782104 
	C1166.445679,431.812500 1175.344116,426.833557 1177.877808,412.405457 
	C1178.978760,406.136322 1178.896606,399.621613 1178.955444,393.214813 
	C1179.095947,377.935181 1179.000854,362.653351 1179.000854,347.203430 
	C1174.128906,347.203430 1169.705200,347.203430 1164.919800,347.203430 
	C1164.919800,349.435333 1164.919800,351.472260 1164.919800,353.066071 
	C1162.032104,351.310516 1159.225952,349.604523 1155.850586,347.331390 
M749.552124,389.043030 
	C749.699341,389.506165 749.853149,389.967346 749.992798,390.432800 
	C755.343811,408.273163 755.343750,408.274750 769.555542,407.950714 
	C769.874695,407.943451 770.190491,407.789368 770.576965,407.685181 
	C774.810913,394.634430 779.054993,381.552551 783.455139,367.989746 
	C787.015808,378.504639 790.371094,388.419617 793.731079,398.332947 
	C797.057373,408.146820 797.059509,408.056244 807.221802,408.059174 
	C810.066589,408.059998 811.412476,407.468109 812.417847,404.383484 
	C815.914612,393.654724 820.056824,383.138397 823.783875,372.481964 
	C826.688538,364.176605 829.340820,355.782990 832.247375,346.999207 
	C828.036438,346.999207 824.376465,347.166901 820.740356,346.944366 
	C817.992126,346.776184 816.684021,347.665192 815.931274,350.414246 
	C814.142761,356.946350 812.012939,363.385986 809.974915,369.848480 
	C808.060425,375.919159 806.086792,381.971191 803.850159,388.930664 
	C799.208557,374.229034 794.944458,360.723114 790.611511,346.999268 
	C787.232910,346.999268 783.898376,347.206177 780.602295,346.938934 
	C777.530396,346.689911 776.419861,347.875580 775.531616,350.798401 
	C771.780762,363.140808 767.669312,375.373627 763.524353,388.156189 
	C762.901306,386.600220 762.377869,385.488037 762.003418,384.327820 
	C758.344177,372.988190 754.758362,361.624390 751.000000,350.317871 
	C750.580078,349.054626 749.289612,347.238525 748.284119,347.157867 
	C743.926270,346.808502 739.524475,347.008118 734.771179,347.008118 
	C739.699036,361.298187 744.373962,374.854828 749.552124,389.043030 
M964.918884,200.623962 
	C959.583801,208.264206 959.842651,217.142838 960.001099,226.274414 
	C955.593384,226.274414 951.852600,226.274414 948.358826,226.274414 
	C948.358826,231.444153 948.358826,236.183151 948.358826,241.146637 
	C952.338013,241.146637 955.958740,241.146637 959.988220,241.146637 
	C959.988220,262.117676 959.988220,282.851013 959.988220,303.784546 
	C966.473083,303.784546 972.539368,303.784546 979.023621,303.784546 
	C979.023621,282.840790 979.023621,262.107941 979.023621,240.957001 
	C983.503845,240.957001 987.585754,240.957001 991.752808,240.957001 
	C991.752808,235.795532 991.752808,231.060822 991.752808,225.908463 
	C987.439636,225.908463 983.355591,225.908463 979.334229,225.908463 
	C978.082275,211.266617 978.942261,210.086197 991.765747,208.555664 
	C991.765747,203.164841 991.765747,197.758743 991.765747,192.193573 
	C981.814819,191.507614 972.378479,191.610687 964.918884,200.623962 
M969.004700,373.525604 
	C969.004700,355.761414 969.004700,337.997253 969.004700,320.308228 
	C963.673462,320.308228 958.937988,320.308228 954.320679,320.308228 
	C954.320679,349.686310 954.320679,378.754822 954.320679,407.664978 
	C959.385010,407.664978 964.123291,407.664978 969.588501,407.664978 
	C966.388367,396.998291 970.759277,389.388824 979.220886,383.533966 
	C983.872864,390.268219 988.872314,397.688568 994.114441,404.933228 
	C995.112061,406.311829 997.012512,407.740234 998.594971,407.861786 
	C1003.514465,408.239685 1008.481323,408.000153 1014.131958,408.000153 
	C1005.466858,395.925537 997.171997,384.366882 988.962341,372.926941 
	C996.771912,364.438782 1004.426697,356.118774 1012.816589,346.999847 
	C1006.423462,346.999847 1001.430176,346.718628 996.497437,347.142242 
	C994.600769,347.305115 992.454895,348.709930 991.084656,350.170135 
	C983.631409,358.112762 976.384888,366.249359 969.004700,373.525604 
M685.541992,357.028625 
	C679.941589,350.147247 673.004639,346.422363 663.863770,345.812408 
	C651.950500,345.017487 642.595581,349.233398 636.244751,358.852386 
	C624.152771,377.166962 633.314453,406.749146 656.616394,409.557678 
	C669.526428,411.113678 687.534973,403.820618 690.639587,387.999939 
	C686.606140,387.999939 682.604736,387.816742 678.636292,388.098389 
	C677.229980,388.198181 675.813660,389.300354 674.559570,390.171783 
	C671.710876,392.151276 669.229309,394.920074 666.118408,396.211975 
	C657.029358,399.986542 645.519226,391.054169 646.308777,381.817749 
	C661.481201,381.817749 676.705688,381.817749 691.900146,381.817749 
	C692.203796,370.670471 691.176636,366.515198 685.541992,357.028625 
M843.997620,354.506165 
	C843.143494,355.690552 842.317566,356.896484 841.430969,358.056030 
	C826.703918,377.315582 838.516479,406.764954 861.633484,409.342712 
	C880.317322,411.426117 893.998474,400.589874 897.799377,386.823242 
	C901.532715,373.300995 894.572815,357.674652 887.384277,352.252655 
	C875.358948,343.182526 856.296509,343.098022 843.997620,354.506165 
M878.001648,242.500000 
	C878.001648,262.917847 878.001648,283.335693 878.001648,303.700623 
	C884.647217,303.700623 890.713989,303.700623 896.712036,303.700623 
	C896.712036,266.350189 896.712036,229.300323 896.712036,192.299835 
	C890.354614,192.299835 884.287903,192.299835 878.001648,192.299835 
	C878.001648,208.898956 878.001648,225.199478 878.001648,242.500000 
M1066.000000,392.496582 
	C1066.000000,385.498535 1065.941040,378.499817 1066.016235,371.502594 
	C1066.095703,364.125244 1072.610107,357.759796 1079.682129,358.015961 
	C1086.750000,358.271912 1090.961182,363.138977 1090.994751,371.148621 
	C1091.021240,377.480042 1091.000610,383.811707 1091.000732,390.143250 
	C1091.000854,396.063995 1091.000732,401.984741 1091.000732,407.633728 
	C1096.448853,407.633728 1101.189087,407.633728 1105.999634,407.633728 
	C1105.999634,393.940643 1106.347046,380.602478 1105.893311,367.291626 
	C1105.508057,355.992950 1099.322998,348.244263 1090.067017,346.303375 
	C1081.211426,344.446381 1072.125000,345.001740 1064.863403,353.274872 
	C1064.863403,350.740601 1064.863403,348.999573 1064.863403,347.267090 
	C1060.117188,347.267090 1055.700195,347.267090 1051.275879,347.267090 
	C1051.275879,367.600677 1051.275879,387.665924 1051.275879,407.709869 
	C1056.291992,407.709869 1061.026367,407.709869 1066.000000,407.709869 
	C1066.000000,402.780334 1066.000000,398.137695 1066.000000,392.496582 
M730.997009,396.959900 
	C730.217224,396.548492 729.378479,395.700684 728.667358,395.796875 
	C724.215210,396.399139 719.963684,394.144592 719.985352,389.771912 
	C720.035522,379.652832 720.001282,369.533264 720.001282,358.997986 
	C723.792175,358.997986 727.209290,358.997986 730.775330,358.997986 
	C730.775330,354.839386 730.775330,351.103607 730.775330,346.948425 
	C727.155518,346.948425 723.739258,346.948425 719.924194,346.948425 
	C719.924194,341.462494 719.924194,336.381348 719.924194,331.265137 
	C714.759888,331.265137 710.025696,331.265137 704.876526,331.265137 
	C704.876526,336.600525 704.876526,341.684326 704.876526,347.157837 
	C701.718140,347.157837 698.978516,347.157837 696.295288,347.157837 
	C696.295288,351.319244 696.295288,355.059357 696.295288,359.203613 
	C699.328308,359.203613 702.066772,359.203613 705.000366,359.203613 
	C705.000366,370.262146 704.907593,380.906097 705.026733,391.547638 
	C705.142822,401.914978 711.663879,408.542267 721.917358,408.998260 
	C730.585083,409.383728 731.000366,408.988892 731.000000,400.361786 
	C730.999939,399.528839 730.999634,398.695862 730.997009,396.959900 
M1022.998352,271.500000 
	C1022.998352,256.415161 1022.998352,241.330353 1022.998352,226.299530 
	C1016.353455,226.299530 1010.288147,226.299530 1004.288330,226.299530 
	C1004.288330,252.316544 1004.288330,278.033905 1004.288330,303.702087 
	C1010.644836,303.702087 1016.710266,303.702087 1022.998352,303.702087 
	C1022.998352,293.103333 1022.998352,282.801666 1022.998352,271.500000 
M935.999146,291.488434 
	C935.999146,269.742920 935.999146,247.997375 935.999146,226.297745 
	C929.358154,226.297745 923.294250,226.297745 917.288574,226.297745 
	C917.288574,252.313477 917.288574,278.031342 917.288574,303.702881 
	C923.644470,303.702881 929.709961,303.702881 935.999146,303.702881 
	C935.999146,299.765564 935.999146,296.123779 935.999146,291.488434 
M624.237610,303.925507 
	C624.491455,302.356934 624.960388,300.789093 624.965820,299.219696 
	C625.020447,283.399200 624.999146,267.578461 624.999146,251.757782 
	C624.999146,243.308960 624.999146,234.860153 624.999146,226.218170 
	C618.523621,226.218170 612.459229,226.218170 606.213074,226.218170 
	C606.213074,252.155670 606.213074,277.875763 606.213074,303.992981 
	C612.034668,303.992981 617.654236,303.992981 624.237610,303.925507 
M926.017761,372.122772 
	C928.465820,362.314117 935.515198,359.290619 944.698792,359.923096 
	C944.698792,355.021881 944.698792,350.608063 944.698792,344.514679 
	C937.548767,347.022461 931.179810,349.256256 925.052612,351.405273 
	C925.013916,350.702911 924.917908,348.963287 924.825317,347.283844 
	C920.075317,347.283844 915.662170,347.283844 911.280884,347.283844 
	C911.280884,367.626587 911.280884,387.684204 911.280884,407.707642 
	C916.300110,407.707642 921.032837,407.707642 926.001526,407.707642 
	C926.001526,395.948547 926.001526,384.480835 926.017761,372.122772 
M1034.999512,395.488373 
	C1034.999512,379.407013 1034.999512,363.325653 1034.999512,347.298065 
	C1029.687866,347.298065 1024.956421,347.298065 1020.287964,347.298065 
	C1020.287964,367.649841 1020.287964,387.702637 1020.287964,407.701843 
	C1025.312744,407.701843 1030.044312,407.701843 1034.999512,407.701843 
	C1034.999512,403.764343 1034.999512,400.123138 1034.999512,395.488373 
M1016.461304,191.918121 
	C1012.070251,190.448029 1006.540344,192.013046 1004.243652,195.375931 
	C1001.246338,199.764648 1001.155029,206.019547 1004.037231,209.506577 
	C1007.463928,213.652359 1013.278259,215.670624 1017.731506,213.663589 
	C1022.139709,211.676895 1024.905884,208.187561 1025.012329,203.024689 
	C1025.124512,197.582321 1022.966675,194.448746 1016.461304,191.918121 
M933.324158,212.123810 
	C933.920837,211.543671 934.508545,210.953949 935.115723,210.384979 
	C938.730835,206.997208 938.558716,203.020493 937.215881,198.668396 
	C935.705078,193.771439 932.114929,191.396149 927.478699,191.121964 
	C922.741516,190.841797 918.621948,192.826889 916.299316,197.314301 
	C913.982178,201.791351 914.404968,206.209305 917.608276,210.056488 
	C921.392761,214.601517 926.368347,215.339340 933.324158,212.123810 
M613.146790,191.349228 
	C612.723022,191.559784 612.318298,191.830933 611.872498,191.971603 
	C607.026550,193.500473 604.364868,196.831619 604.028015,201.852371 
	C603.672485,207.149597 606.169861,211.191666 610.774475,213.238571 
	C615.234436,215.221161 620.223877,214.143250 623.837646,210.694229 
	C627.544006,207.156769 627.776184,203.129211 626.164917,198.602219 
	C624.086609,192.762894 619.748779,190.721191 613.146790,191.349228 
M1020.478088,334.972778 
	C1022.373108,335.824554 1024.359741,337.527832 1026.142578,337.336060 
	C1029.092163,337.018829 1032.761475,336.258667 1034.580444,334.270020 
	C1037.171753,331.436951 1037.184937,327.248962 1035.066284,323.629425 
	C1033.065063,320.210266 1029.760132,318.991882 1026.097290,319.651917 
	C1018.796570,320.967438 1016.518860,326.740051 1020.478088,334.972778 
z"/>
<path fill="#107AFC" opacity="1.000000" stroke="none" 
	d="
M207.648682,68.707275 
	C224.117996,59.844337 241.131882,53.433643 259.140259,50.115784 
	C269.739685,48.162956 280.511414,46.856670 291.264679,46.114368 
	C300.741150,45.460205 310.436432,44.977898 319.789886,46.238720 
	C333.954315,48.148052 348.117615,50.861824 361.898804,54.632240 
	C382.799011,60.350368 401.609985,70.585709 419.100159,83.483452 
	C437.367279,96.954132 452.290802,113.322723 464.011139,132.625809 
	C473.004120,147.436981 479.910034,163.229858 483.450287,180.250992 
	C485.442780,189.830673 487.737701,199.601379 487.746918,209.288101 
	C487.767761,231.140411 474.502777,251.270737 453.379333,258.025085 
	C436.800995,263.326141 419.467255,256.012787 410.799622,241.397751 
	C404.875488,231.408691 403.284058,220.677994 404.232330,209.286682 
	C404.449371,206.679245 403.716156,203.880966 402.931671,201.320175 
	C398.132111,185.652451 391.116333,171.231766 379.137421,159.628311 
	C365.904449,146.810074 350.101318,138.767090 332.206451,135.099960 
	C315.602570,131.697388 299.005981,131.885452 282.283813,135.664230 
	C256.997345,141.378281 236.036682,154.019119 219.225525,173.439835 
	C208.748978,185.542633 201.661850,199.636337 198.311310,215.398331 
	C198.009979,216.815887 198.798492,218.991150 199.842972,220.090454 
	C217.707001,238.892075 235.699844,257.571228 253.646454,276.294495 
	C268.464935,291.754242 283.293213,307.204865 298.053558,322.720032 
	C307.604797,332.759705 317.228302,342.740601 326.485504,353.047699 
	C340.205139,368.323364 339.066864,391.694824 324.725800,404.749939 
	C310.169891,418.000671 287.989410,418.505066 273.466400,404.028381 
	C237.091141,367.769196 200.464355,331.762512 164.002472,295.589996 
	C146.684143,278.409088 129.474319,261.117950 112.347305,243.746658 
	C111.025429,242.405914 110.140923,240.046585 110.094208,238.135223 
	C109.862228,228.643997 108.984138,219.012619 110.218132,209.679779 
	C111.873154,197.162643 114.793480,184.751999 118.015862,172.518295 
	C122.027069,157.289856 129.523254,143.478928 138.215561,130.482330 
	C146.830795,117.601006 156.447113,105.407127 168.794830,95.743027 
	C177.313080,89.076096 185.824554,82.386696 194.594162,76.060989 
	C198.516693,73.231590 203.065018,71.269760 207.648682,68.707275 
z"/>
<path fill="#107AFC" opacity="1.000000" stroke="none" 
	d="
M347.792053,335.211792 
	C329.578705,318.251740 311.552612,301.588409 293.477112,284.978851 
	C287.639893,279.614990 281.668274,274.397522 275.766174,269.104126 
	C264.190063,258.721893 256.223907,246.381195 257.122650,230.249756 
	C257.981720,214.829803 267.558685,203.177094 283.782013,200.057419 
	C304.291718,196.113464 321.171509,202.719360 335.997742,217.368683 
	C352.548157,233.721603 370.171173,248.987000 387.276978,264.780304 
	C405.637360,281.731903 423.920776,298.766907 442.273041,315.727356 
	C454.631439,327.148529 467.039734,338.515869 479.455780,349.874420 
	C481.275024,351.538727 483.278961,352.999512 485.167023,354.590546 
	C488.639954,357.517181 490.319458,360.971405 490.143707,365.807709 
	C489.910645,372.221649 490.899414,378.669495 490.950409,385.106049 
	C491.164459,412.119995 484.413452,437.264313 471.556366,461.087799 
	C454.055511,493.516113 428.767395,517.884705 397.037659,536.010681 
	C382.142487,544.519775 366.328308,550.496216 349.817688,555.277466 
	C326.424988,562.051575 302.571594,564.809937 278.646423,562.682617 
	C243.827408,559.586487 211.122711,549.301331 182.461746,528.113098 
	C157.569794,509.711182 138.315811,486.911285 127.226341,457.909424 
	C122.890755,446.570831 118.445496,434.649689 117.587418,422.739014 
	C115.924568,399.657684 122.736961,379.237183 143.673859,365.821045 
	C153.580261,359.473145 173.213943,358.438965 182.945847,366.975586 
	C191.046387,374.081207 195.868210,383.039673 195.785568,393.463440 
	C195.643723,411.354736 202.127182,426.416626 212.712021,440.154907 
	C226.435104,457.966187 244.510330,469.341736 265.952545,475.568573 
	C280.914978,479.913666 296.327515,480.564819 311.399658,477.750702 
	C331.492676,473.999146 349.663605,465.385529 365.592865,452.148621 
	C384.366028,436.548492 396.252563,416.635132 403.696075,393.749268 
	C404.857666,390.177826 404.620789,387.418243 401.199493,384.350952 
	C385.356873,370.147308 369.960449,355.446411 354.373993,340.956116 
	C352.325134,339.051361 350.102386,337.333679 347.792053,335.211792 
z"/>
<path fill="#DEDEDE" opacity="1.000000" stroke="none" 
	d="
M671.471313,227.191010 
	C684.459167,222.338593 699.175659,223.293213 708.562622,236.045685 
	C715.097412,228.030609 724.161316,225.341003 733.863647,224.071838 
	C745.690674,222.524750 759.416382,232.692230 761.951599,245.013321 
	C762.605896,248.193390 762.935181,251.493958 762.954895,254.741943 
	C763.053772,271.019562 763.000183,287.298126 763.000183,303.786865 
	C756.869263,303.786865 751.137146,303.786865 745.000000,303.786865 
	C745.000000,289.137207 745.302551,274.682007 744.830994,260.252106 
	C744.672302,255.395889 743.438477,250.106949 741.098022,245.906158 
	C738.051453,240.438126 731.592590,239.487488 724.428162,241.884232 
	C718.330627,243.924072 714.067139,249.578873 714.026672,256.153198 
	C713.939514,270.309692 713.999939,284.467072 714.000000,298.624084 
	C714.000000,300.254486 714.000000,301.884918 714.000000,303.755829 
	C707.600708,303.755829 701.535156,303.755829 694.999756,303.755829 
	C694.999756,288.211121 695.138000,272.772797 694.925842,257.339294 
	C694.850159,251.837830 694.188171,246.026688 688.627563,242.991898 
	C677.600952,236.973862 664.310852,243.356491 664.058594,257.853302 
	C663.795044,272.997711 663.999756,288.150299 663.999756,303.649811 
	C657.823547,303.649811 651.752991,303.649811 645.339844,303.649811 
	C645.339844,278.131195 645.339844,252.407730 645.339844,226.342010 
	C650.862610,226.342010 656.593262,226.342010 662.773682,226.342010 
	C662.888184,228.607086 663.009521,231.008011 663.148926,233.765396 
	C665.916565,231.541229 668.517212,229.451309 671.471313,227.191010 
z"/>
<path fill="#DDDDDD" opacity="1.000000" stroke="none" 
	d="
M550.945190,241.004257 
	C558.004333,243.015381 564.832764,244.539505 571.229858,247.129013 
	C584.639832,252.557281 590.005371,262.863281 588.904968,277.207458 
	C587.932678,289.880798 580.281555,298.164276 568.859497,302.488068 
	C554.834167,307.797302 540.227295,308.603241 526.335388,302.471863 
	C512.983826,296.578918 507.128693,285.185455 506.796387,270.027466 
	C512.488281,270.027466 517.916321,269.859344 523.314636,270.184540 
	C524.270813,270.242126 525.746216,272.280243 525.891541,273.530548 
	C527.122864,284.119202 537.417542,289.574554 545.426880,288.919830 
	C551.029846,288.461761 556.741272,287.819824 562.090515,286.214264 
	C566.992065,284.743103 569.894409,280.235718 569.787415,275.274536 
	C569.680237,270.306091 567.380005,265.645905 561.926208,264.020477 
	C553.618469,261.544495 545.221130,259.370880 536.885559,256.985962 
	C528.056213,254.459778 518.977173,251.660492 514.523987,242.863892 
	C505.118378,224.284439 513.014771,202.653320 536.705261,197.119980 
	C548.175659,194.440887 559.794067,194.894455 570.556885,200.542862 
	C579.795959,205.391632 584.854919,213.466003 586.976440,223.496384 
	C587.469604,225.827896 587.671692,228.220947 588.040405,230.815781 
	C581.582031,230.815781 575.472656,230.815781 569.376038,230.815781 
	C568.054382,215.524353 554.666382,210.750015 541.650635,213.723373 
	C535.929504,215.030304 531.450317,217.774399 530.119446,223.558838 
	C528.518677,230.516495 531.723389,235.465103 538.824951,237.898712 
	C542.630371,239.202759 546.615173,239.983154 550.945190,241.004257 
z"/>
<path fill="#DEDEDE" opacity="1.000000" stroke="none" 
	d="
M858.958740,246.249939 
	C864.341003,262.786682 864.180237,278.315369 854.033875,292.807159 
	C848.193481,301.148712 839.825012,304.991058 830.083557,305.932709 
	C819.573669,306.948669 809.905396,304.846527 802.063477,295.394501 
	C802.063477,309.168488 802.063477,321.859436 802.063477,334.771851 
	C795.568665,334.771851 789.504700,334.771851 783.220215,334.771851 
	C783.220215,298.570160 783.220215,262.527039 783.220215,226.242004 
	C789.077393,226.242004 794.810242,226.242004 800.984253,226.242004 
	C800.984253,229.109009 800.984253,231.811111 800.984253,234.935806 
	C819.999756,215.978058 850.546326,224.631638 858.958740,246.249939 
M836.998779,246.500534 
	C827.199280,237.750687 813.151184,239.066040 805.841003,249.739044 
	C801.310486,256.353577 800.854248,263.833038 802.002441,271.539429 
	C803.496826,281.569763 812.064148,289.416870 822.203735,289.976013 
	C830.143250,290.413818 839.023132,283.704376 842.055786,275.368927 
	C845.823914,265.012146 843.845764,255.705658 836.998779,246.500534 
z"/>
<path fill="#DEDEDE" opacity="1.000000" stroke="none" 
	d="
M1189.999756,301.098022 
	C1189.999390,298.984253 1189.999390,297.320465 1189.999390,296.570557 
	C1185.136963,299.262634 1180.285156,303.291962 1174.752319,304.767883 
	C1155.857544,309.808075 1137.334473,301.804596 1130.926025,281.485016 
	C1126.007812,265.890625 1127.143555,250.981110 1137.020996,237.574661 
	C1142.529541,230.098038 1150.094604,225.864075 1159.708984,224.871994 
	C1170.940430,223.713028 1180.558228,226.109344 1188.766724,235.305008 
	C1188.766724,220.607986 1188.766724,206.605240 1188.766724,192.303436 
	C1194.943848,192.303436 1200.674927,192.303436 1206.706421,192.303436 
	C1206.706421,229.277374 1206.706421,266.320251 1206.706421,303.983826 
	C1201.737427,303.983826 1196.647095,304.057861 1191.565918,303.876984 
	C1191.016968,303.857452 1190.520752,302.359985 1189.999756,301.098022 
M1161.112427,242.353210 
	C1158.068237,244.602661 1154.201904,246.271988 1152.130249,249.207733 
	C1145.249023,258.958923 1145.151733,269.351685 1150.966187,279.806274 
	C1158.020630,292.490356 1177.439575,292.181122 1184.485596,281.354065 
	C1188.319214,275.463165 1189.178101,269.387909 1189.009766,262.777496 
	C1188.659912,249.035843 1176.715942,237.237656 1161.112427,242.353210 
z"/>
<path fill="#DEDEDE" opacity="1.000000" stroke="none" 
	d="
M1067.708984,286.430115 
	C1076.240479,292.720551 1091.239990,290.433960 1096.118286,281.057007 
	C1096.638916,280.056335 1098.322510,279.139160 1099.502441,279.092621 
	C1104.819092,278.882965 1110.148804,279.001099 1116.096069,279.001099 
	C1112.191040,292.243164 1104.103516,300.694366 1091.158569,304.380280 
	C1070.152954,310.361298 1049.022949,301.307678 1042.624634,280.003296 
	C1037.390991,262.577179 1039.792969,246.202713 1054.143066,233.707642 
	C1058.812378,229.641876 1065.197144,226.577271 1071.268433,225.307236 
	C1081.553589,223.155716 1091.815186,224.501343 1100.865967,230.953247 
	C1110.951416,238.142746 1116.210938,247.872177 1116.998657,260.136993 
	C1117.009399,260.302948 1117.001221,260.470154 1117.000000,260.636780 
	C1116.977173,263.806213 1118.197632,268.476196 1116.626831,269.778076 
	C1114.501465,271.539398 1110.234741,270.943481 1106.884644,270.961914 
	C1091.072510,271.049072 1075.259521,271.000763 1058.927368,271.000763 
	C1059.643188,277.559814 1061.881592,282.754364 1067.708984,286.430115 
M1067.125366,243.353561 
	C1062.998291,246.932770 1059.957275,251.141678 1059.197510,256.659393 
	C1072.514526,256.659393 1085.674438,256.659393 1098.889160,256.659393 
	C1096.210449,242.058472 1080.809082,235.577347 1067.125366,243.353561 
z"/>
<path fill="#DDDDDE" opacity="1.000000" stroke="none" 
	d="
M562.000305,379.000000 
	C562.000305,388.804230 562.000305,398.108459 562.000305,407.705688 
	C557.039734,407.705688 552.306335,407.705688 547.282959,407.705688 
	C547.282959,380.357300 547.282959,352.969299 547.282959,325.002380 
	C551.825012,325.002380 556.443787,324.765839 561.011597,325.144348 
	C562.410095,325.260223 564.035889,326.812958 564.935974,328.131927 
	C577.079651,345.925629 589.113342,363.794403 601.763062,382.515930 
	C601.763062,362.910675 601.763062,344.262512 601.763062,325.308411 
	C606.935425,325.308411 611.668640,325.308411 616.703125,325.308411 
	C616.703125,352.616852 616.703125,380.004852 616.703125,407.997925 
	C612.199524,407.997925 607.596252,408.151276 603.017090,407.886261 
	C601.920349,407.822815 600.610474,406.567871 599.894714,405.521545 
	C587.879150,387.956146 575.943665,370.335907 563.980530,352.734589 
	C563.636902,352.228943 563.184692,351.797119 562.000305,350.422089 
	C562.000305,360.457611 562.000305,369.478821 562.000305,379.000000 
z"/>
<path fill="#DCDCDD" opacity="1.000000" stroke="none" 
	d="
M1156.135254,347.614960 
	C1159.225952,349.604523 1162.032104,351.310516 1164.919800,353.066071 
	C1164.919800,351.472260 1164.919800,349.435333 1164.919800,347.203430 
	C1169.705200,347.203430 1174.128906,347.203430 1179.000854,347.203430 
	C1179.000854,362.653351 1179.095947,377.935181 1178.955444,393.214813 
	C1178.896606,399.621613 1178.978760,406.136322 1177.877808,412.405457 
	C1175.344116,426.833557 1166.445679,431.812500 1154.739258,433.782104 
	C1146.138550,435.229156 1137.596558,433.577576 1130.160400,428.050568 
	C1124.832397,424.090668 1122.414551,418.718567 1121.001099,412.001129 
	C1125.446167,412.001129 1129.715942,411.876923 1133.968872,412.090668 
	C1134.999512,412.142456 1136.284180,413.090088 1136.924561,413.997894 
	C1141.412354,420.358643 1147.281250,422.591583 1154.259399,420.398651 
	C1161.494507,418.124969 1163.998535,414.304779 1163.999878,405.538910 
	C1164.000122,403.894165 1164.000000,402.249420 1164.000000,399.895752 
	C1159.247437,404.270721 1154.308594,406.530121 1148.203613,407.196442 
	C1137.633301,408.350037 1129.259644,404.945160 1123.241333,396.605408 
	C1112.369751,381.540375 1115.503052,358.681183 1131.213379,349.315491 
	C1139.034790,344.652802 1147.388306,344.903503 1156.135254,347.614960 
M1163.673828,382.878357 
	C1163.781860,379.239868 1164.371460,375.538635 1163.906860,371.974792 
	C1162.559326,361.637665 1150.672485,355.663025 1141.321167,360.215942 
	C1133.496826,364.025421 1129.655273,374.560974 1133.470337,384.207397 
	C1135.974976,390.540436 1141.343018,394.104218 1149.225464,394.000610 
	C1156.404785,393.906281 1160.999756,390.423370 1163.673828,382.878357 
z"/>
<path fill="#DCDCDD" opacity="1.000000" stroke="none" 
	d="
M749.300537,388.727264 
	C744.373962,374.854828 739.699036,361.298187 734.771179,347.008118 
	C739.524475,347.008118 743.926270,346.808502 748.284119,347.157867 
	C749.289612,347.238525 750.580078,349.054626 751.000000,350.317871 
	C754.758362,361.624390 758.344177,372.988190 762.003418,384.327820 
	C762.377869,385.488037 762.901306,386.600220 763.524353,388.156189 
	C767.669312,375.373627 771.780762,363.140808 775.531616,350.798401 
	C776.419861,347.875580 777.530396,346.689911 780.602295,346.938934 
	C783.898376,347.206177 787.232910,346.999268 790.611511,346.999268 
	C794.944458,360.723114 799.208557,374.229034 803.850159,388.930664 
	C806.086792,381.971191 808.060425,375.919159 809.974915,369.848480 
	C812.012939,363.385986 814.142761,356.946350 815.931274,350.414246 
	C816.684021,347.665192 817.992126,346.776184 820.740356,346.944366 
	C824.376465,347.166901 828.036438,346.999207 832.247375,346.999207 
	C829.340820,355.782990 826.688538,364.176605 823.783875,372.481964 
	C820.056824,383.138397 815.914612,393.654724 812.417847,404.383484 
	C811.412476,407.468109 810.066589,408.059998 807.221802,408.059174 
	C797.059509,408.056244 797.057373,408.146820 793.731079,398.332947 
	C790.371094,388.419617 787.015808,378.504639 783.455139,367.989746 
	C779.054993,381.552551 774.810913,394.634430 770.576965,407.685181 
	C770.190491,407.789368 769.874695,407.943451 769.555542,407.950714 
	C755.343750,408.274750 755.343811,408.273163 749.992798,390.432800 
	C749.853149,389.967346 749.699341,389.506165 749.300537,388.727264 
z"/>
<path fill="#DEDEDE" opacity="1.000000" stroke="none" 
	d="
M965.162476,200.344025 
	C972.378479,191.610687 981.814819,191.507614 991.765747,192.193573 
	C991.765747,197.758743 991.765747,203.164841 991.765747,208.555664 
	C978.942261,210.086197 978.082275,211.266617 979.334229,225.908463 
	C983.355591,225.908463 987.439636,225.908463 991.752808,225.908463 
	C991.752808,231.060822 991.752808,235.795532 991.752808,240.957001 
	C987.585754,240.957001 983.503845,240.957001 979.023621,240.957001 
	C979.023621,262.107941 979.023621,282.840790 979.023621,303.784546 
	C972.539368,303.784546 966.473083,303.784546 959.988220,303.784546 
	C959.988220,282.851013 959.988220,262.117676 959.988220,241.146637 
	C955.958740,241.146637 952.338013,241.146637 948.358826,241.146637 
	C948.358826,236.183151 948.358826,231.444153 948.358826,226.274414 
	C951.852600,226.274414 955.593384,226.274414 960.001099,226.274414 
	C959.842651,217.142838 959.583801,208.264206 965.162476,200.344025 
z"/>
<path fill="#DDDDDE" opacity="1.000000" stroke="none" 
	d="
M969.035950,373.922394 
	C976.384888,366.249359 983.631409,358.112762 991.084656,350.170135 
	C992.454895,348.709930 994.600769,347.305115 996.497437,347.142242 
	C1001.430176,346.718628 1006.423462,346.999847 1012.816589,346.999847 
	C1004.426697,356.118774 996.771912,364.438782 988.962341,372.926941 
	C997.171997,384.366882 1005.466858,395.925537 1014.131958,408.000153 
	C1008.481323,408.000153 1003.514465,408.239685 998.594971,407.861786 
	C997.012512,407.740234 995.112061,406.311829 994.114441,404.933228 
	C988.872314,397.688568 983.872864,390.268219 979.220886,383.533966 
	C970.759277,389.388824 966.388367,396.998291 969.588501,407.664978 
	C964.123291,407.664978 959.385010,407.664978 954.320679,407.664978 
	C954.320679,378.754822 954.320679,349.686310 954.320679,320.308228 
	C958.937988,320.308228 963.673462,320.308228 969.004700,320.308228 
	C969.004700,337.997253 969.004700,355.761414 969.035950,373.922394 
z"/>
<path fill="#DCDCDD" opacity="1.000000" stroke="none" 
	d="
M685.796997,357.305298 
	C691.176636,366.515198 692.203796,370.670471 691.900146,381.817749 
	C676.705688,381.817749 661.481201,381.817749 646.308777,381.817749 
	C645.519226,391.054169 657.029358,399.986542 666.118408,396.211975 
	C669.229309,394.920074 671.710876,392.151276 674.559570,390.171783 
	C675.813660,389.300354 677.229980,388.198181 678.636292,388.098389 
	C682.604736,387.816742 686.606140,387.999939 690.639587,387.999939 
	C687.534973,403.820618 669.526428,411.113678 656.616394,409.557678 
	C633.314453,406.749146 624.152771,377.166962 636.244751,358.852386 
	C642.595581,349.233398 651.950500,345.017487 663.863770,345.812408 
	C673.004639,346.422363 679.941589,350.147247 685.796997,357.305298 
M652.664307,370.999268 
	C660.709900,370.999268 668.755554,370.999268 676.892395,370.999268 
	C675.315369,362.488922 669.568970,357.520447 660.372498,357.966156 
	C653.265991,358.310638 648.353699,362.610901 646.246216,370.999268 
	C648.115845,370.999268 649.918091,370.999268 652.664307,370.999268 
z"/>
<path fill="#DCDCDD" opacity="1.000000" stroke="none" 
	d="
M844.255249,354.249390 
	C856.296509,343.098022 875.358948,343.182526 887.384277,352.252655 
	C894.572815,357.674652 901.532715,373.300995 897.799377,386.823242 
	C893.998474,400.589874 880.317322,411.426117 861.633484,409.342712 
	C838.516479,406.764954 826.703918,377.315582 841.430969,358.056030 
	C842.317566,356.896484 843.143494,355.690552 844.255249,354.249390 
M856.045959,392.567017 
	C860.018738,393.877289 864.171448,396.675232 867.930664,396.220367 
	C879.443420,394.827454 885.085999,387.102753 883.940857,375.386993 
	C882.554749,361.204620 869.090515,355.087463 858.054810,361.285706 
	C849.381592,366.157043 846.390747,383.282837 856.045959,392.567017 
z"/>
<path fill="#DEDEDE" opacity="1.000000" stroke="none" 
	d="
M878.001648,242.000000 
	C878.001648,225.199478 878.001648,208.898956 878.001648,192.299835 
	C884.287903,192.299835 890.354614,192.299835 896.712036,192.299835 
	C896.712036,229.300323 896.712036,266.350189 896.712036,303.700623 
	C890.713989,303.700623 884.647217,303.700623 878.001648,303.700623 
	C878.001648,283.335693 878.001648,262.917847 878.001648,242.000000 
z"/>
<path fill="#DDDDDE" opacity="1.000000" stroke="none" 
	d="
M1066.000000,392.995819 
	C1066.000000,398.137695 1066.000000,402.780334 1066.000000,407.709869 
	C1061.026367,407.709869 1056.291992,407.709869 1051.275879,407.709869 
	C1051.275879,387.665924 1051.275879,367.600677 1051.275879,347.267090 
	C1055.700195,347.267090 1060.117188,347.267090 1064.863403,347.267090 
	C1064.863403,348.999573 1064.863403,350.740601 1064.863403,353.274872 
	C1072.125000,345.001740 1081.211426,344.446381 1090.067017,346.303375 
	C1099.322998,348.244263 1105.508057,355.992950 1105.893311,367.291626 
	C1106.347046,380.602478 1105.999634,393.940643 1105.999634,407.633728 
	C1101.189087,407.633728 1096.448853,407.633728 1091.000732,407.633728 
	C1091.000732,401.984741 1091.000854,396.063995 1091.000732,390.143250 
	C1091.000610,383.811707 1091.021240,377.480042 1090.994751,371.148621 
	C1090.961182,363.138977 1086.750000,358.271912 1079.682129,358.015961 
	C1072.610107,357.759796 1066.095703,364.125244 1066.016235,371.502594 
	C1065.941040,378.499817 1066.000000,385.498535 1066.000000,392.995819 
z"/>
<path fill="#DDDDDE" opacity="1.000000" stroke="none" 
	d="
M730.998291,397.411407 
	C730.999634,398.695862 730.999939,399.528839 731.000000,400.361786 
	C731.000366,408.988892 730.585083,409.383728 721.917358,408.998260 
	C711.663879,408.542267 705.142822,401.914978 705.026733,391.547638 
	C704.907593,380.906097 705.000366,370.262146 705.000366,359.203613 
	C702.066772,359.203613 699.328308,359.203613 696.295288,359.203613 
	C696.295288,355.059357 696.295288,351.319244 696.295288,347.157837 
	C698.978516,347.157837 701.718140,347.157837 704.876526,347.157837 
	C704.876526,341.684326 704.876526,336.600525 704.876526,331.265137 
	C710.025696,331.265137 714.759888,331.265137 719.924194,331.265137 
	C719.924194,336.381348 719.924194,341.462494 719.924194,346.948425 
	C723.739258,346.948425 727.155518,346.948425 730.775330,346.948425 
	C730.775330,351.103607 730.775330,354.839386 730.775330,358.997986 
	C727.209290,358.997986 723.792175,358.997986 720.001282,358.997986 
	C720.001282,369.533264 720.035522,379.652832 719.985352,389.771912 
	C719.963684,394.144592 724.215210,396.399139 728.667358,395.796875 
	C729.378479,395.700684 730.217224,396.548492 730.998291,397.411407 
z"/>
<path fill="#DEDEDE" opacity="1.000000" stroke="none" 
	d="
M1022.998352,272.000000 
	C1022.998352,282.801666 1022.998352,293.103333 1022.998352,303.702087 
	C1016.710266,303.702087 1010.644836,303.702087 1004.288330,303.702087 
	C1004.288330,278.033905 1004.288330,252.316544 1004.288330,226.299530 
	C1010.288147,226.299530 1016.353455,226.299530 1022.998352,226.299530 
	C1022.998352,241.330353 1022.998352,256.415161 1022.998352,272.000000 
z"/>
<path fill="#DEDEDE" opacity="1.000000" stroke="none" 
	d="
M935.999146,291.985229 
	C935.999146,296.123779 935.999146,299.765564 935.999146,303.702881 
	C929.709961,303.702881 923.644470,303.702881 917.288574,303.702881 
	C917.288574,278.031342 917.288574,252.313477 917.288574,226.297745 
	C923.294250,226.297745 929.358154,226.297745 935.999146,226.297745 
	C935.999146,247.997375 935.999146,269.742920 935.999146,291.985229 
z"/>
<path fill="#DEDEDE" opacity="1.000000" stroke="none" 
	d="
M623.755737,303.959229 
	C617.654236,303.992981 612.034668,303.992981 606.213074,303.992981 
	C606.213074,277.875763 606.213074,252.155670 606.213074,226.218170 
	C612.459229,226.218170 618.523621,226.218170 624.999146,226.218170 
	C624.999146,234.860153 624.999146,243.308960 624.999146,251.757782 
	C624.999146,267.578461 625.020447,283.399200 624.965820,299.219696 
	C624.960388,300.789093 624.491455,302.356934 623.755737,303.959229 
z"/>
<path fill="#DDDDDE" opacity="1.000000" stroke="none" 
	d="
M926.009644,372.567932 
	C926.001526,384.480835 926.001526,395.948547 926.001526,407.707642 
	C921.032837,407.707642 916.300110,407.707642 911.280884,407.707642 
	C911.280884,387.684204 911.280884,367.626587 911.280884,347.283844 
	C915.662170,347.283844 920.075317,347.283844 924.825317,347.283844 
	C924.917908,348.963287 925.013916,350.702911 925.052612,351.405273 
	C931.179810,349.256256 937.548767,347.022461 944.698792,344.514679 
	C944.698792,350.608063 944.698792,355.021881 944.698792,359.923096 
	C935.515198,359.290619 928.465820,362.314117 926.009644,372.567932 
z"/>
<path fill="#DDDDDE" opacity="1.000000" stroke="none" 
	d="
M1034.999512,395.985168 
	C1034.999512,400.123138 1034.999512,403.764343 1034.999512,407.701843 
	C1030.044312,407.701843 1025.312744,407.701843 1020.287964,407.701843 
	C1020.287964,387.702637 1020.287964,367.649841 1020.287964,347.298065 
	C1024.956421,347.298065 1029.687866,347.298065 1034.999512,347.298065 
	C1034.999512,363.325653 1034.999512,379.407013 1034.999512,395.985168 
z"/>
<path fill="#DDDDDD" opacity="1.000000" stroke="none" 
	d="
M1016.865112,191.955933 
	C1022.966675,194.448746 1025.124512,197.582321 1025.012329,203.024689 
	C1024.905884,208.187561 1022.139709,211.676895 1017.731506,213.663589 
	C1013.278259,215.670624 1007.463928,213.652359 1004.037231,209.506577 
	C1001.155029,206.019547 1001.246338,199.764648 1004.243652,195.375931 
	C1006.540344,192.013046 1012.070251,190.448029 1016.865112,191.955933 
z"/>
<path fill="#DEDEDE" opacity="1.000000" stroke="none" 
	d="
M933.059814,212.424225 
	C926.368347,215.339340 921.392761,214.601517 917.608276,210.056488 
	C914.404968,206.209305 913.982178,201.791351 916.299316,197.314301 
	C918.621948,192.826889 922.741516,190.841797 927.478699,191.121964 
	C932.114929,191.396149 935.705078,193.771439 937.215881,198.668396 
	C938.558716,203.020493 938.730835,206.997208 935.115723,210.384979 
	C934.508545,210.953949 933.920837,211.543671 933.059814,212.424225 
z"/>
<path fill="#DEDEDE" opacity="1.000000" stroke="none" 
	d="
M613.529785,191.194061 
	C619.748779,190.721191 624.086609,192.762894 626.164917,198.602219 
	C627.776184,203.129211 627.544006,207.156769 623.837646,210.694229 
	C620.223877,214.143250 615.234436,215.221161 610.774475,213.238571 
	C606.169861,211.191666 603.672485,207.149597 604.028015,201.852371 
	C604.364868,196.831619 607.026550,193.500473 611.872498,191.971603 
	C612.318298,191.830933 612.723022,191.559784 613.529785,191.194061 
z"/>
<path fill="#DCDCDD" opacity="1.000000" stroke="none" 
	d="
M1020.258301,334.646820 
	C1016.518860,326.740051 1018.796570,320.967438 1026.097290,319.651917 
	C1029.760132,318.991882 1033.065063,320.210266 1035.066284,323.629425 
	C1037.184937,327.248962 1037.171753,331.436951 1034.580444,334.270020 
	C1032.761475,336.258667 1029.092163,337.018829 1026.142578,337.336060 
	C1024.359741,337.527832 1022.373108,335.824554 1020.258301,334.646820 
z"/>
<path fill="#000000" opacity="1.000000" stroke="none" 
	d="
M837.263794,246.763657 
	C843.845764,255.705658 845.823914,265.012146 842.055786,275.368927 
	C839.023132,283.704376 830.143250,290.413818 822.203735,289.976013 
	C812.064148,289.416870 803.496826,281.569763 802.002441,271.539429 
	C800.854248,263.833038 801.310486,256.353577 805.841003,249.739044 
	C813.151184,239.066040 827.199280,237.750687 837.263794,246.763657 
z"/>
<path fill="#000000" opacity="1.000000" stroke="none" 
	d="
M1161.495850,242.190399 
	C1176.715942,237.237656 1188.659912,249.035843 1189.009766,262.777496 
	C1189.178101,269.387909 1188.319214,275.463165 1184.485596,281.354065 
	C1177.439575,292.181122 1158.020630,292.490356 1150.966187,279.806274 
	C1145.151733,269.351685 1145.249023,258.958923 1152.130249,249.207733 
	C1154.201904,246.271988 1158.068237,244.602661 1161.495850,242.190399 
z"/>
<path fill="#000000" opacity="1.000000" stroke="none" 
	d="
M1067.465454,243.182648 
	C1080.809082,235.577347 1096.210449,242.058472 1098.889160,256.659393 
	C1085.674438,256.659393 1072.514526,256.659393 1059.197510,256.659393 
	C1059.957275,251.141678 1062.998291,246.932770 1067.465454,243.182648 
z"/>
<path fill="#000000" opacity="1.000000" stroke="none" 
	d="
M1163.395996,383.174347 
	C1160.999756,390.423370 1156.404785,393.906281 1149.225464,394.000610 
	C1141.343018,394.104218 1135.974976,390.540436 1133.470337,384.207397 
	C1129.655273,374.560974 1133.496826,364.025421 1141.321167,360.215942 
	C1150.672485,355.663025 1162.559326,361.637665 1163.906860,371.974792 
	C1164.371460,375.538635 1163.781860,379.239868 1163.395996,383.174347 
z"/>
<path fill="#000000" opacity="1.000000" stroke="none" 
	d="
M652.192261,370.999268 
	C649.918091,370.999268 648.115845,370.999268 646.246216,370.999268 
	C648.353699,362.610901 653.265991,358.310638 660.372498,357.966156 
	C669.568970,357.520447 675.315369,362.488922 676.892395,370.999268 
	C668.755554,370.999268 660.709900,370.999268 652.192261,370.999268 
z"/>
<path fill="#000000" opacity="1.000000" stroke="none" 
	d="
M855.786499,392.291748 
	C846.390747,383.282837 849.381592,366.157043 858.054810,361.285706 
	C869.090515,355.087463 882.554749,361.204620 883.940857,375.386993 
	C885.085999,387.102753 879.443420,394.827454 867.930664,396.220367 
	C864.171448,396.675232 860.018738,393.877289 855.786499,392.291748 
z"/>
</svg>